<?xml version="1.0" encoding="iso-8859-1"?>
<!-- Generator: Adobe Illustrator 15.0.0, SVG Export Plug-In . SVG Version: 6.00 Build 0)  -->
<!DOCTYPE svg PUBLIC "-//W3C//DTD SVG 1.1//EN" "http://www.w3.org/Graphics/SVG/1.1/DTD/svg11.dtd">
<svg version="1.1" id="Capa_1" xmlns="http://www.w3.org/2000/svg" xmlns:xlink="http://www.w3.org/1999/xlink" x="0px" y="0px"
	 width="1018.218px" height="815.715px" viewBox="0 0 1018.218 815.715" style="enable-background:new 0 0 1018.218 815.715;"
	 xml:space="preserve">
<rect x="1038.159" style="fill:#B2B2B2;" width="961.379" height="815.715"/>
<path d="M241.729,563.75v53.565c0,8.104,3.971,12.155,11.928,12.155h2.923v14.854h-3.149c-6.751,0-12.531-2.063-17.331-6.188
	c-4.804-4.125-7.728-9.342-8.775-15.645c-5.851,7.354-13.019,12.943-21.496,16.768c-8.477,3.828-17.518,5.74-27.118,5.74
	c-17.256,0-32.111-5.551-44.563-16.654c-12.305-12.301-18.454-27.157-18.454-44.563V563.75c0-17.252,6.149-32.032,18.454-44.336
	c12.452-12.453,27.308-18.68,44.563-18.68c17.402,0,32.258,6.154,44.56,18.454C235.573,531.492,241.729,546.348,241.729,563.75z
	 M226.647,563.75c0-13.2-4.725-24.454-14.178-33.758c-9.306-9.453-20.556-14.181-33.758-14.181
	c-13.206,0-24.531,4.728-33.983,14.181c-9.454,9.304-14.182,20.558-14.182,33.758v20.031c0,13.355,4.728,24.757,14.182,34.21
	c9.75,9.304,21.076,13.953,33.983,13.953c13.202,0,24.452-4.727,33.758-14.178c9.453-9.453,14.178-20.78,14.178-33.985V563.75z"/>
<path d="M386.671,503.435v80.347v45.688c0,15.756-6.228,29.854-18.68,42.313c-12.458,12.451-27.232,18.68-44.337,18.68
	c-18.005,0-33.31-6.604-45.916-19.807l10.579-10.578c9.751,10.203,21.528,15.303,35.336,15.303c13.199,0,24.452-4.725,33.758-14.178
	c9.453-9.154,14.178-19.727,14.178-31.732v-4.953c-5.852,6.904-12.904,12.041-21.156,15.416c-8.254,3.375-17.181,5.066-26.78,5.066
	c-17.259,0-32.111-5.551-44.563-16.654c-12.305-12.301-18.457-27.157-18.457-44.563v-80.347h14.855v80.347
	c0,13.355,4.725,24.757,14.178,34.21c9.754,9.304,21.08,13.953,33.987,13.953c13.199,0,24.452-4.727,33.758-14.178
	c9.453-9.453,14.178-20.78,14.178-33.985v-80.347H386.671z"/>
<path d="M529.355,644.323h-15.078V563.75c0-13.2-4.725-24.454-14.178-33.758c-9.306-9.453-20.56-14.181-33.761-14.181
	c-13.206,0-24.531,4.728-33.984,14.181c-9.305,9.304-13.952,20.558-13.952,33.758v219.718h-15.082V563.75
	c0-17.252,6.153-32.032,18.457-44.336c12.452-12.453,27.305-18.68,44.56-18.68c17.407,0,32.258,6.154,44.563,18.454
	c12.302,12.304,18.454,27.16,18.454,44.563V644.323z"/>
<path style="fill:#E94E1B;" d="M653.362,626.995c-12.455,12.006-27.681,18.004-45.686,18.004c-17.255,0-32.111-5.551-44.563-16.654
	c-12.305-12.301-18.454-27.157-18.454-44.563V563.75c0-17.252,6.149-32.032,18.454-44.336c12.452-12.453,27.308-18.68,44.563-18.68
	c17.252,0,32.033,6.154,44.337,18.454c12.453,12.154,18.68,27.008,18.68,44.563v17.555H559.514v2.476
	c0,13.355,4.725,24.757,14.177,34.21c9.751,9.304,21.081,13.953,33.984,13.953c13.651,0,25.356-5.176,35.11-15.528L653.362,626.995z
	 M655.615,566.226v-2.476c0-13.2-4.729-24.454-14.181-33.758c-9.302-9.453-20.556-14.181-33.758-14.181
	c-13.205,0-24.531,4.728-33.984,14.181c-9.452,9.304-14.177,20.558-14.177,33.758v2.476H655.615z"/>
<path style="fill:#E94E1B;" d="M658.39,435.78l79.373,122.343l40.51-54.688h19.58l-50.414,67.743l52.89,73.146h-19.58
	l-42.985-60.092l-43.214,60.092H675.42l52.438-73.146L638.812,435.78H658.39z"/>
<g>
	<path d="M438.932,669.425c2.115,0,3.874,0.771,5.276,2.311l-1.621,1.656c-0.966-1.125-2.185-1.691-3.656-1.691
		c-1.357,0-2.495,0.484-3.414,1.451c-0.943,0.941-1.415,2.068-1.415,3.379c0,1.887,0.644,3.195,1.932,3.932
		c0.597,0.322,1.258,0.656,1.983,1c0.725,0.348,1.488,0.676,2.293,1c1.494,0.598,2.908,1.447,4.242,2.551
		c1.311,1.082,1.966,2.967,1.966,5.658c0,2.346-0.839,4.346-2.518,6c-1.679,1.473-3.667,2.205-5.967,2.205
		c-2.345,0-4.357-0.732-6.035-2.205l1.656-1.621c1.218,1.217,2.677,1.826,4.379,1.826c1.702,0,3.162-0.609,4.381-1.826
		c1.218-1.219,1.828-2.678,1.828-4.379c0-2.209-0.656-3.725-1.966-4.555c-1.288-0.828-2.713-1.539-4.276-2.137
		c-1.495-0.596-2.92-1.379-4.276-2.344c-1.288-0.967-1.932-2.67-1.932-5.105c0-1.932,0.702-3.598,2.104-5
		C435.298,670.128,436.977,669.425,438.932,669.425z"/>
	<path d="M459.142,698.876c-2.966,0-5.507-0.951-7.622-2.861c-2.116-2.115-3.173-4.643-3.173-7.586v-8.209
		c0-2.967,1.057-5.508,3.173-7.623c2.115-2.115,4.656-3.172,7.622-3.172c2.966,0,5.506,1.057,7.622,3.172
		c2.115,2.115,3.172,4.656,3.172,7.623h0.035v8.209h-0.035c-0.046,2.967-1.115,5.494-3.207,7.586
		C464.613,697.925,462.085,698.876,459.142,698.876z M459.142,696.876c2.345,0,4.345-0.824,6-2.48
		c1.678-1.676,2.518-3.691,2.518-6.035v-8.141c0-2.344-0.84-4.346-2.518-6.002c-1.655-1.676-3.655-2.518-6-2.518
		c-2.345,0-4.358,0.842-6.036,2.518c-1.655,1.656-2.483,3.658-2.483,6.002v8.141c0,2.344,0.828,4.359,2.483,6.035
		C454.784,696.052,456.797,696.876,459.142,696.876z"/>
	<path d="M472.557,669.804h2.276v26.697h14.726v2.273h-17.002V669.804z"/>
	<path d="M510.494,669.804v18.625h-0.035c-0.046,2.967-1.115,5.494-3.207,7.586c-2.115,1.91-4.645,2.861-7.587,2.861
		c-2.966,0-5.507-0.951-7.622-2.861c-2.117-2.115-3.173-4.643-3.173-7.586v-18.625h2.276v18.557c0,2.344,0.827,4.359,2.482,6.035
		c1.679,1.656,3.69,2.48,6.036,2.48s4.346-0.824,6.001-2.48c1.678-1.676,2.517-3.691,2.517-6.035v-18.557H510.494z"/>
	<path d="M531.358,695.981c-2.115,1.93-4.668,2.895-7.657,2.895s-5.529-0.965-7.622-2.895c-2.115-2.113-3.172-4.654-3.172-7.621
		v-8.141c0-2.967,1.058-5.508,3.172-7.623c2.115-2.115,4.656-3.172,7.622-3.172c2.988,0,5.542,1.057,7.657,3.172l-1.656,1.621
		c-1.655-1.676-3.655-2.518-6.001-2.518c-2.345,0-4.356,0.842-6.035,2.518c-1.655,1.656-2.483,3.658-2.483,6.002v8.141
		c0,2.344,0.828,4.359,2.483,6.035c1.679,1.656,3.69,2.48,6.035,2.48c2.346,0,4.346-0.838,6.001-2.514L531.358,695.981z"/>
	<path d="M536.151,669.804v28.971h-2.31v-28.971H536.151z"/>
	<path d="M549.705,698.876c-2.966,0-5.507-0.951-7.623-2.861c-2.115-2.115-3.172-4.643-3.172-7.586v-8.209
		c0-2.967,1.058-5.508,3.172-7.623c2.116-2.115,4.656-3.172,7.623-3.172c2.965,0,5.506,1.057,7.621,3.172s3.173,4.656,3.173,7.623
		h0.034v8.209H560.5c-0.046,2.967-1.115,5.494-3.208,7.586C555.176,697.925,552.647,698.876,549.705,698.876z M549.705,696.876
		c2.345,0,4.346-0.824,6.001-2.48c1.677-1.676,2.517-3.691,2.517-6.035v-8.141c0-2.344-0.84-4.346-2.517-6.002
		c-1.655-1.676-3.656-2.518-6.001-2.518s-4.358,0.842-6.035,2.518c-1.656,1.656-2.483,3.658-2.483,6.002v8.141
		c0,2.344,0.827,4.359,2.483,6.035C545.347,696.052,547.36,696.876,549.705,696.876z"/>
	<path d="M563.122,669.804h3.759l15.554,26.902v-26.902h2.275v28.971h-3.759l-15.554-26.9v26.9h-2.275V669.804z"/>
	<path d="M587.608,669.804h17v2.313h-14.725v9.207h10.138v2.725h-10.138v12.453h14.725v2.273h-17V669.804z"/>
	<path d="M612.85,669.425c2.115,0,3.876,0.771,5.278,2.311l-1.621,1.656c-0.966-1.125-2.184-1.691-3.657-1.691
		c-1.356,0-2.495,0.484-3.412,1.451c-0.944,0.941-1.415,2.068-1.415,3.379c0,1.887,0.642,3.195,1.932,3.932
		c0.596,0.322,1.257,0.656,1.98,1c0.724,0.348,1.49,0.676,2.296,1c1.493,0.598,2.907,1.447,4.24,2.551
		c1.313,1.082,1.968,2.967,1.968,5.658c0,2.346-0.841,4.346-2.518,6c-1.679,1.473-3.667,2.205-5.965,2.205
		c-2.348,0-4.358-0.732-6.038-2.205l1.657-1.621c1.218,1.217,2.678,1.826,4.381,1.826c1.699,0,3.16-0.609,4.377-1.826
		c1.218-1.219,1.827-2.678,1.827-4.379c0-2.209-0.655-3.725-1.964-4.555c-1.287-0.828-2.715-1.539-4.276-2.137
		c-1.497-0.596-2.921-1.379-4.276-2.344c-1.287-0.967-1.932-2.67-1.932-5.105c0-1.932,0.701-3.598,2.105-5
		C609.218,670.128,610.897,669.425,612.85,669.425z"/>
	<path d="M642.131,669.804v28.971h-2.312v-28.971H642.131z"/>
	<path d="M645.199,669.804h3.759l15.556,26.902v-26.902h2.275v28.971h-3.758l-15.557-26.9v26.9h-2.275V669.804z"/>
	<path d="M669.688,669.804h17v2.313h-14.725v9.207h10.138v2.725h-10.138v14.727h-2.275V669.804z"/>
	<path d="M698.622,698.876c-2.966,0-5.507-0.951-7.623-2.861c-2.115-2.115-3.172-4.643-3.172-7.586v-8.209
		c0-2.967,1.058-5.508,3.172-7.623c2.116-2.115,4.656-3.172,7.623-3.172c2.964,0,5.504,1.057,7.619,3.172
		c2.117,2.115,3.174,4.656,3.174,7.623h0.036v8.209h-0.036c-0.046,2.967-1.114,5.494-3.206,7.586
		C704.094,697.925,701.563,698.876,698.622,698.876z M698.622,696.876c2.345,0,4.346-0.824,5.999-2.48
		c1.68-1.676,2.519-3.691,2.519-6.035v-8.141c0-2.344-0.838-4.346-2.519-6.002c-1.653-1.676-3.653-2.518-5.999-2.518
		c-2.347,0-4.358,0.842-6.037,2.518c-1.654,1.656-2.481,3.658-2.481,6.002v8.141c0,2.344,0.828,4.359,2.481,6.035
		C694.264,696.052,696.275,696.876,698.622,696.876z"/>
	<path d="M712.038,669.804h9.656c2.642,0,4.917,0.957,6.827,2.863c1.886,1.885,2.829,4.15,2.829,6.793
		c0,2.002-0.563,3.809-1.689,5.416c-1.104,1.635-2.532,2.807-4.276,3.518l6.001,10.381h-2.655l-5.622-9.76
		c-0.669,0.07-1.141,0.105-1.415,0.105h-7.38v9.654h-2.275V669.804z M721.693,686.808c2.023,0,3.746-0.713,5.174-2.139
		c1.446-1.449,2.17-3.184,2.17-5.209c0-2.023-0.724-3.744-2.17-5.174c-1.428-1.445-3.151-2.17-5.174-2.17h-7.38v14.691H721.693z"/>
	<path d="M760.906,698.774h-2.311v-27.66l-10.069,27.66h-2.209l-10.105-27.66v27.66h-2.275v-28.971h4.275l9.211,25.314l9.208-25.314
		h4.274V698.774z"/>
	<path d="M773.218,669.804h3.104l10.553,28.971h-2.449l-3.517-9.654H768.63l-3.516,9.654h-2.346L773.218,669.804z M769.458,686.808
		h10.621l-5.31-14.59L769.458,686.808z M773.802,667.978h-1.861l4.175-6.932h3.034L773.802,667.978z"/>
	<path d="M806.982,669.804v2.313h-8.52v26.658h-2.276v-26.658h-8.516v-2.313H806.982z"/>
	<path d="M811.016,669.804v28.971h-2.31v-28.971H811.016z"/>
	<path d="M832.191,695.981c-2.115,1.93-4.667,2.895-7.654,2.895c-2.99,0-5.531-0.965-7.623-2.895
		c-2.117-2.113-3.174-4.654-3.174-7.621v-8.141c0-2.967,1.057-5.508,3.174-7.623c2.115-2.115,4.656-3.172,7.623-3.172
		c2.987,0,5.539,1.057,7.654,3.172l-1.653,1.621c-1.657-1.676-3.658-2.518-6.001-2.518c-2.346,0-4.36,0.842-6.035,2.518
		c-1.657,1.656-2.486,3.658-2.486,6.002v8.141c0,2.344,0.829,4.359,2.486,6.035c1.675,1.656,3.689,2.48,6.035,2.48
		c2.343,0,4.344-0.838,6.001-2.514L832.191,695.981z"/>
	<path d="M844.227,669.804h3.104l10.554,28.971h-2.45l-3.515-9.654h-12.28l-3.516,9.654h-2.345L844.227,669.804z M840.467,686.808
		h10.623l-5.312-14.59L840.467,686.808z"/>
	<path d="M866.505,669.425c2.116,0,3.877,0.771,5.277,2.311l-1.62,1.656c-0.966-1.125-2.185-1.691-3.657-1.691
		c-1.356,0-2.495,0.484-3.413,1.451c-0.942,0.941-1.412,2.068-1.412,3.379c0,1.887,0.641,3.195,1.93,3.932
		c0.597,0.322,1.258,0.656,1.982,1c0.722,0.348,1.49,0.676,2.294,1c1.493,0.598,2.909,1.447,4.24,2.551
		c1.313,1.082,1.969,2.967,1.969,5.658c0,2.346-0.841,4.346-2.518,6c-1.68,1.473-3.669,2.205-5.966,2.205
		c-2.348,0-4.358-0.732-6.038-2.205l1.657-1.621c1.217,1.217,2.678,1.826,4.381,1.826c1.698,0,3.158-0.609,4.377-1.826
		c1.219-1.219,1.828-2.678,1.828-4.379c0-2.209-0.656-3.725-1.966-4.555c-1.286-0.828-2.714-1.539-4.276-2.137
		c-1.495-0.596-2.92-1.379-4.276-2.344c-1.286-0.967-1.932-2.67-1.932-5.105c0-1.932,0.7-3.598,2.104-5
		S864.554,669.425,866.505,669.425z"/>
</g>
<g>
	<path d="M582.975,228.395l47.808-64.545l0.797-1.285c-31.281-47.517-81.314-78.561-141.572-78.561
		c-0.238,0-0.472,0.008-0.708,0.009L582.975,228.395z"/>
	<path d="M594.392,243.802l50.288,69.548c7.817-19.315,12.133-40.422,12.133-62.541c0-25.058-5.536-48.818-15.436-70.144
		L594.392,243.802z"/>
	<path d="M633.704,330.13l-50.729-70.923L473.312,416.786c5.491,0.546,11.061,0.829,16.696,0.829
		c63.41,0,114.412-34.616,145.468-85.13L633.704,330.13z"/>
	<path d="M323.652,238.536h138.581v-4.576c0-24.397-8.737-45.198-26.211-62.394c-17.193-17.472-37.993-26.21-62.393-26.21
		c-4.676,0-9.22,0.326-13.641,0.967C339.382,171.933,326.182,203.753,323.652,238.536z"/>
	<path d="M453.031,413.495l118.252-169.693L467.212,85.561c-29.329,4.009-56.227,15.639-78.639,32.833
		c25.556,3.057,47.9,14.105,67.004,33.201c23.015,22.464,34.526,49.918,34.526,82.365v32.448h-166.17
		c3.282,35.374,17.603,67.543,39.493,93.028c3.341,0.363,6.738,0.567,10.205,0.567c25.228,0,46.865-9.567,64.893-28.698
		l19.547,19.547c-19.462,18.763-42.602,29.555-69.394,32.453C407.403,397.647,429.25,408.112,453.031,413.495z"/>
</g>
<path style="fill:none;stroke:#000000;stroke-miterlimit:10;" d="M-1402.523,402.873v90.348c0,13.669,6.699,20.5,20.119,20.5h4.932
	v25.057h-5.313c-11.389,0-21.136-3.48-29.232-10.438c-8.102-6.959-13.034-15.757-14.801-26.388
	c-9.869,12.404-21.959,21.832-36.257,28.282c-14.299,6.457-29.548,9.682-45.74,9.682c-29.105,0-54.162-9.362-75.165-28.089
	c-20.755-20.749-31.127-45.806-31.127-75.167v-33.786c0-29.1,10.372-54.029,31.127-74.784c21.003-21.003,46.06-31.508,75.165-31.508
	c29.354,0,54.41,10.38,75.16,31.126C-1412.906,348.463-1402.523,373.52-1402.523,402.873z M-1427.961,402.873
	c0-22.265-7.969-41.247-23.914-56.94c-15.696-15.944-34.672-23.919-56.94-23.919c-22.273,0-41.376,7.975-57.321,23.919
	c-15.944,15.693-23.919,34.675-23.919,56.94v33.786c0,22.527,7.975,41.757,23.919,57.705c16.447,15.69,35.55,23.533,57.321,23.533
	c22.268,0,41.244-7.97,56.94-23.914c15.944-15.944,23.914-35.051,23.914-57.324V402.873z"/>
<path style="fill:none;stroke:#000000;stroke-miterlimit:10;" d="M-1158.046,301.138v135.521v77.062
	c0,26.576-10.504,50.356-31.507,71.371c-21.015,21.004-45.933,31.508-74.785,31.508c-30.369,0-56.183-11.14-77.445-33.408
	l17.843-17.845c16.447,17.21,36.313,25.814,59.602,25.814c22.263,0,41.245-7.97,56.94-23.915
	c15.945-15.44,23.914-33.274,23.914-53.526v-8.351c-9.869,11.642-21.765,20.307-35.683,26.001
	c-13.923,5.694-28.978,8.544-45.171,8.544c-29.11,0-54.162-9.362-75.165-28.089c-20.755-20.749-31.133-45.806-31.133-75.167V301.138
	h25.058v135.521c0,22.527,7.969,41.757,23.914,57.705c16.452,15.69,35.555,23.533,57.326,23.533c22.263,0,41.245-7.97,56.94-23.914
	c15.945-15.944,23.914-35.051,23.914-57.324V301.138H-1158.046z"/>
<path style="fill:none;stroke:#000000;stroke-miterlimit:10;" d="M-917.379,538.778h-25.433V402.873
	c0-22.265-7.969-41.247-23.914-56.94c-15.696-15.944-34.678-23.919-56.946-23.919c-22.273,0-41.376,7.975-57.321,23.919
	c-15.696,15.693-23.533,34.675-23.533,56.94v370.602h-25.438V402.873c0-29.1,10.377-54.029,31.132-74.784
	c21.003-21.003,46.054-31.508,75.159-31.508c29.359,0,54.411,10.38,75.166,31.126c20.749,20.755,31.126,45.812,31.126,75.165
	V538.778z"/>
<path style="fill:none;stroke:#000000;stroke-miterlimit:10;" d="M-708.214,509.546c-21.009,20.252-46.69,30.37-77.06,30.37
	c-29.106,0-54.162-9.362-75.165-28.089c-20.755-20.749-31.127-45.806-31.127-75.167v-33.786c0-29.1,10.372-54.029,31.127-74.784
	c21.003-21.003,46.059-31.508,75.165-31.508c29.099,0,54.029,10.38,74.784,31.126c21.003,20.5,31.507,45.555,31.507,75.165v29.61
	h-187.526v4.176c0,22.527,7.97,41.757,23.914,57.705c16.448,15.69,35.556,23.533,57.322,23.533c23.024,0,42.768-8.732,59.22-26.189
	L-708.214,509.546z M-704.415,407.049v-4.176c0-22.265-7.976-41.247-23.92-56.94c-15.69-15.944-34.672-23.919-56.939-23.919
	c-22.274,0-41.377,7.975-57.322,23.919c-15.943,15.693-23.914,34.675-23.914,56.94v4.176H-704.415z"/>
<path style="fill:none;stroke:#000000;stroke-miterlimit:10;" d="M-699.735,187.023l133.881,206.36l68.329-92.245h33.026
	l-85.035,114.264l89.209,123.376h-33.026l-72.503-101.359l-72.89,101.359h-32.264l88.447-123.376l-150.198-228.379H-699.735z"/>
<g>
	<path style="fill:none;stroke:#000000;stroke-miterlimit:10;" d="M-1069.897,581.116c3.568,0,6.534,1.304,8.9,3.898l-2.734,2.795
		c-1.629-1.9-3.685-2.856-6.167-2.856c-2.289,0-4.208,0.818-5.759,2.446c-1.59,1.59-2.386,3.49-2.386,5.7
		c0,3.181,1.085,5.39,3.258,6.633c1.008,0.542,2.123,1.104,3.345,1.684c1.221,0.586,2.51,1.143,3.868,1.69
		c2.52,1.005,4.906,2.44,7.155,4.302c2.21,1.823,3.316,5.003,3.316,9.544c0,3.953-1.417,7.328-4.247,10.117
		c-2.832,2.485-6.186,3.723-10.063,3.723c-3.956,0-7.35-1.237-10.18-3.723l2.793-2.734c2.055,2.055,4.517,3.082,7.387,3.082
		c2.87,0,5.332-1.027,7.388-3.082c2.054-2.054,3.083-4.518,3.083-7.383c0-3.729-1.105-6.286-3.316-7.684
		c-2.172-1.397-4.575-2.595-7.213-3.605c-2.521-1.006-4.925-2.326-7.213-3.955c-2.173-1.63-3.258-4.501-3.258-8.61
		c0-3.258,1.183-6.07,3.548-8.433C-1076.026,582.303-1073.194,581.116-1069.897,581.116z"/>
	<path style="fill:none;stroke:#000000;stroke-miterlimit:10;" d="M-1035.809,630.794c-5.003,0-9.289-1.607-12.857-4.827
		c-3.568-3.568-5.352-7.833-5.352-12.796v-13.846c0-5.005,1.784-9.291,5.352-12.858c3.568-3.568,7.854-5.351,12.857-5.351
		s9.287,1.783,12.855,5.351c3.569,3.567,5.352,7.853,5.352,12.858h0.059v13.846h-0.059c-0.078,5.003-1.881,9.266-5.409,12.796
		C-1026.58,629.187-1030.845,630.794-1035.809,630.794z M-1035.809,627.419c3.956,0,7.329-1.392,10.121-4.186
		c2.83-2.829,4.247-6.225,4.247-10.18v-13.729c0-3.955-1.417-7.33-4.247-10.124c-2.792-2.829-6.165-4.248-10.121-4.248
		c-3.955,0-7.351,1.419-10.179,4.248c-2.794,2.793-4.189,6.168-4.189,10.124v13.729c0,3.955,1.395,7.351,4.189,10.18
		C-1043.16,626.027-1039.764,627.419-1035.809,627.419z"/>
	<path style="fill:none;stroke:#000000;stroke-miterlimit:10;" d="M-1013.181,581.757h3.838v45.027h24.839v3.838h-28.677V581.757z"
		/>
	<path style="fill:none;stroke:#000000;stroke-miterlimit:10;" d="M-949.193,581.757v31.414h-0.059
		c-0.078,5.003-1.88,9.266-5.409,12.796c-3.568,3.22-7.834,4.827-12.798,4.827c-5.003,0-9.288-1.607-12.856-4.827
		c-3.569-3.568-5.351-7.833-5.351-12.796v-31.414h3.839v31.297c0,3.955,1.396,7.351,4.188,10.18c2.83,2.794,6.224,4.186,10.18,4.186
		c3.956,0,7.33-1.392,10.122-4.186c2.83-2.829,4.248-6.225,4.248-10.18v-31.297H-949.193z"/>
	<path style="fill:none;stroke:#000000;stroke-miterlimit:10;" d="M-914,625.912c-3.569,3.252-7.874,4.882-12.915,4.882
		c-5.041,0-9.327-1.63-12.855-4.882c-3.568-3.568-5.352-7.855-5.352-12.858v-13.729c0-5.005,1.784-9.291,5.352-12.858
		c3.567-3.568,7.853-5.351,12.855-5.351c5.041,0,9.346,1.783,12.915,5.351l-2.793,2.734c-2.792-2.829-6.167-4.248-10.122-4.248
		s-7.35,1.419-10.18,4.248c-2.792,2.793-4.188,6.168-4.188,10.124v13.729c0,3.955,1.396,7.351,4.188,10.18
		c2.83,2.794,6.224,4.186,10.18,4.186s7.33-1.415,10.122-4.242L-914,625.912z"/>
	<path style="fill:none;stroke:#000000;stroke-miterlimit:10;" d="M-905.916,581.757v48.865h-3.896v-48.865H-905.916z"/>
	<path style="fill:none;stroke:#000000;stroke-miterlimit:10;" d="M-883.054,630.794c-5.003,0-9.289-1.607-12.857-4.827
		c-3.568-3.568-5.352-7.833-5.352-12.796v-13.846c0-5.005,1.784-9.291,5.352-12.858c3.568-3.568,7.854-5.351,12.857-5.351
		c5.001,0,9.287,1.783,12.854,5.351c3.567,3.567,5.352,7.853,5.352,12.858h0.058v13.846h-0.058
		c-0.077,5.003-1.881,9.266-5.41,12.796C-873.825,629.187-878.092,630.794-883.054,630.794z M-883.054,627.419
		c3.955,0,7.329-1.392,10.121-4.186c2.831-2.829,4.248-6.225,4.248-10.18v-13.729c0-3.955-1.417-7.33-4.248-10.124
		c-2.792-2.829-6.166-4.248-10.121-4.248s-7.351,1.419-10.179,4.248c-2.793,2.793-4.189,6.168-4.189,10.124v13.729
		c0,3.955,1.396,7.351,4.189,10.18C-890.405,626.027-887.009,627.419-883.054,627.419z"/>
	<path style="fill:none;stroke:#000000;stroke-miterlimit:10;" d="M-860.424,581.757h6.34l26.235,45.375v-45.375h3.838v48.865h-6.34
		l-26.235-45.375v45.375h-3.838V581.757z"/>
	<path style="fill:none;stroke:#000000;stroke-miterlimit:10;" d="M-819.124,581.757h28.674v3.898h-24.835v15.53h17.099v4.595
		h-17.099v21.004h24.835v3.838h-28.674V581.757z"/>
	<path style="fill:none;stroke:#000000;stroke-miterlimit:10;" d="M-776.548,581.116c3.568,0,6.539,1.304,8.903,3.898l-2.734,2.795
		c-1.629-1.9-3.684-2.856-6.169-2.856c-2.287,0-4.208,0.818-5.755,2.446c-1.59,1.59-2.386,3.49-2.386,5.7
		c0,3.181,1.083,5.39,3.259,6.633c1.005,0.542,2.12,1.104,3.341,1.684c1.221,0.586,2.513,1.143,3.872,1.69
		c2.519,1.005,4.904,2.44,7.152,4.302c2.214,1.823,3.318,5.003,3.318,9.544c0,3.953-1.419,7.328-4.247,10.117
		c-2.833,2.485-6.186,3.723-10.063,3.723c-3.96,0-7.351-1.237-10.184-3.723l2.794-2.734c2.055,2.055,4.518,3.082,7.39,3.082
		c2.866,0,5.33-1.027,7.383-3.082c2.055-2.054,3.082-4.518,3.082-7.383c0-3.729-1.104-6.286-3.313-7.684
		c-2.171-1.397-4.578-2.595-7.213-3.605c-2.524-1.006-4.926-2.326-7.212-3.955c-2.171-1.63-3.259-4.501-3.259-8.61
		c0-3.258,1.182-6.07,3.551-8.433C-782.673,582.303-779.839,581.116-776.548,581.116z"/>
	<path style="fill:none;stroke:#000000;stroke-miterlimit:10;" d="M-727.158,581.757v48.865h-3.899v-48.865H-727.158z"/>
	<path style="fill:none;stroke:#000000;stroke-miterlimit:10;" d="M-721.983,581.757h6.34l26.238,45.375v-45.375h3.838v48.865h-6.34
		l-26.239-45.375v45.375h-3.838V581.757z"/>
	<path style="fill:none;stroke:#000000;stroke-miterlimit:10;" d="M-680.678,581.757h28.674v3.898h-24.836v15.53h17.098v4.595
		h-17.098v24.842h-3.838V581.757z"/>
	<path style="fill:none;stroke:#000000;stroke-miterlimit:10;" d="M-631.873,630.794c-5.004,0-9.29-1.607-12.857-4.827
		c-3.568-3.568-5.352-7.833-5.352-12.796v-13.846c0-5.005,1.784-9.291,5.352-12.858c3.567-3.568,7.853-5.351,12.857-5.351
		c4.998,0,9.283,1.783,12.852,5.351c3.568,3.567,5.352,7.853,5.352,12.858h0.061v13.846h-0.061
		c-0.077,5.003-1.878,9.266-5.407,12.796C-622.645,629.187-626.914,630.794-631.873,630.794z M-631.873,627.419
		c3.955,0,7.329-1.392,10.117-4.186c2.833-2.829,4.248-6.225,4.248-10.18v-13.729c0-3.955-1.415-7.33-4.248-10.124
		c-2.789-2.829-6.163-4.248-10.117-4.248c-3.96,0-7.351,1.419-10.184,4.248c-2.789,2.793-4.186,6.168-4.186,10.124v13.729
		c0,3.955,1.397,7.351,4.186,10.18C-639.224,626.027-635.833,627.419-631.873,627.419z"/>
	<path style="fill:none;stroke:#000000;stroke-miterlimit:10;" d="M-609.246,581.757h16.287c4.457,0,8.295,1.611,11.515,4.827
		c3.182,3.181,4.772,7.002,4.772,11.458c0,3.375-0.95,6.424-2.85,9.136c-1.861,2.756-4.269,4.733-7.212,5.932l10.123,17.512h-4.479
		l-9.482-16.463c-1.126,0.115-1.922,0.176-2.386,0.176h-12.448v16.288h-3.838V581.757z M-592.959,610.436
		c3.413,0,6.318-1.203,8.726-3.605c2.442-2.448,3.662-5.375,3.662-8.788c0-3.413-1.22-6.317-3.662-8.726
		c-2.407-2.44-5.313-3.662-8.726-3.662h-12.448v24.781H-592.959z"/>
	<path style="fill:none;stroke:#000000;stroke-miterlimit:10;" d="M-526.819,630.622h-3.899v-46.656l-16.982,46.656h-3.728
		l-17.043-46.656v46.656h-3.839v-48.865h7.213l15.536,42.696l15.53-42.696h7.213V630.622z"/>
	<path style="fill:none;stroke:#000000;stroke-miterlimit:10;" d="M-506.053,581.757h5.235l17.801,48.865h-4.132l-5.931-16.288
		h-20.71l-5.932,16.288h-3.954L-506.053,581.757z M-512.393,610.436h17.916l-8.958-24.609L-512.393,610.436z M-505.064,578.675
		h-3.142l7.042-11.692h5.119L-505.064,578.675z"/>
	<path style="fill:none;stroke:#000000;stroke-miterlimit:10;" d="M-449.102,581.757v3.898h-14.371v44.967h-3.837v-44.967h-14.365
		v-3.898H-449.102z"/>
	<path style="fill:none;stroke:#000000;stroke-miterlimit:10;" d="M-442.298,581.757v48.865h-3.894v-48.865H-442.298z"/>
	<path style="fill:none;stroke:#000000;stroke-miterlimit:10;" d="M-406.582,625.912c-3.568,3.252-7.87,4.882-12.913,4.882
		c-5.043,0-9.328-1.63-12.857-4.882c-3.567-3.568-5.351-7.855-5.351-12.858v-13.729c0-5.005,1.784-9.291,5.351-12.858
		c3.568-3.568,7.853-5.351,12.857-5.351c5.042,0,9.345,1.783,12.913,5.351l-2.79,2.734c-2.794-2.829-6.168-4.248-10.123-4.248
		s-7.351,1.419-10.179,4.248c-2.794,2.793-4.191,6.168-4.191,10.124v13.729c0,3.955,1.397,7.351,4.191,10.18
		c2.828,2.794,6.224,4.186,10.179,4.186s7.329-1.415,10.123-4.242L-406.582,625.912z"/>
	<path style="fill:none;stroke:#000000;stroke-miterlimit:10;" d="M-386.281,581.757h5.236l17.8,48.865h-4.131l-5.932-16.288h-20.71
		l-5.931,16.288h-3.955L-386.281,581.757z M-392.621,610.436h17.917l-8.958-24.609L-392.621,610.436z"/>
	<path style="fill:none;stroke:#000000;stroke-miterlimit:10;" d="M-348.703,581.116c3.568,0,6.539,1.304,8.902,3.898l-2.734,2.795
		c-1.629-1.9-3.684-2.856-6.168-2.856c-2.286,0-4.209,0.818-5.755,2.446c-1.59,1.59-2.385,3.49-2.385,5.7
		c0,3.181,1.083,5.39,3.258,6.633c1.005,0.542,2.121,1.104,3.341,1.684c1.221,0.586,2.513,1.143,3.872,1.69
		c2.518,1.005,4.904,2.44,7.151,4.302c2.215,1.823,3.32,5.003,3.32,9.544c0,3.953-1.419,7.328-4.247,10.117
		c-2.833,2.485-6.186,3.723-10.063,3.723c-3.96,0-7.351-1.237-10.184-3.723l2.795-2.734c2.054,2.055,4.518,3.082,7.389,3.082
		c2.867,0,5.33-1.027,7.384-3.082c2.054-2.054,3.082-4.518,3.082-7.383c0-3.729-1.105-6.286-3.313-7.684
		c-2.171-1.397-4.579-2.595-7.213-3.605c-2.524-1.006-4.927-2.326-7.213-3.955c-2.17-1.63-3.259-4.501-3.259-8.61
		c0-3.258,1.182-6.07,3.552-8.433C-354.828,582.303-351.995,581.116-348.703,581.116z"/>
</g>
<g>
	<path style="fill:none;stroke:#000000;stroke-miterlimit:10;" d="M-826.938-162.775l80.639-108.869h2.684
		c-49.446-80.774-138.492-134.678-240.131-134.678c-0.4,0-0.795,0.014-1.193,0.015L-826.938-162.775z"/>
	<path style="fill:none;stroke:#000000;stroke-miterlimit:10;" d="M-807.68-136.789l84.821,117.309
		c13.186-32.579,20.465-68.182,20.465-105.489c0-42.266-9.336-82.343-26.034-118.313L-807.68-136.789z"/>
	<path style="fill:none;stroke:#000000;stroke-miterlimit:10;" d="M-741.374,8.822l-85.564-119.627l-184.969,265.79
		c9.261,0.921,18.655,1.399,28.16,1.399c106.955,0,199.97-59.685,247.563-147.562H-741.374z"/>
	<path style="fill:none;stroke:#000000;stroke-miterlimit:10;" d="M-1264.34-145.669h233.746v-7.718
		c0-41.152-14.737-76.236-44.209-105.241c-29-29.471-64.083-44.21-105.239-44.21c-7.887,0-15.552,0.551-23.008,1.632
		C-1237.809-258.01-1260.075-204.339-1264.34-145.669z"/>
	<path style="fill:none;stroke:#000000;stroke-miterlimit:10;" d="M-1046.116,149.435l199.456-286.224l-175.536-266.907
		c-49.471,6.761-94.841,26.378-132.642,55.38c43.106,5.156,80.793,23.792,113.016,56c38.819,37.892,58.234,84.199,58.234,138.927
		v54.729h-280.281c5.537,59.666,29.69,113.927,66.613,156.912c5.636,0.611,11.366,0.955,17.212,0.955
		c42.553,0,79.048-16.137,109.456-48.404l32.971,32.971c-32.827,31.647-71.856,49.851-117.047,54.738
		C-1123.079,122.705-1086.228,140.357-1046.116,149.435z"/>
</g>
<path d="M1265.047,550.817v51.708c0,7.823,3.834,11.733,11.515,11.733h2.823v14.34h-3.041c-6.518,0-12.097-1.991-16.73-5.974
	c-4.637-3.982-7.459-9.018-8.471-15.102c-5.648,7.099-12.567,12.495-20.75,16.186c-8.184,3.695-16.91,5.541-26.178,5.541
	c-16.657,0-30.998-5.357-43.019-16.076c-11.878-11.875-17.814-26.215-17.814-43.02v-19.336c0-16.654,5.937-30.922,17.814-42.8
	c12.021-12.021,26.361-18.032,43.019-18.032c16.8,0,31.14,5.94,43.015,17.814C1259.105,519.678,1265.047,534.018,1265.047,550.817z
	 M1250.489,550.817c0-12.743-4.561-23.606-13.686-32.587c-8.983-9.125-19.844-13.689-32.588-13.689
	c-12.747,0-23.681,4.564-32.806,13.689c-9.125,8.981-13.689,19.845-13.689,32.587v19.336c0,12.893,4.564,23.898,13.689,33.025
	c9.412,8.979,20.346,13.468,32.806,13.468c12.744,0,23.604-4.561,32.588-13.686c9.125-9.125,13.686-20.06,13.686-32.807V550.817z"/>
<path d="M1404.966,492.593v77.561v44.104c0,15.21-6.012,28.82-18.033,40.847c-12.026,12.021-26.288,18.032-42.8,18.032
	c-17.381,0-32.154-6.375-44.323-19.119l10.212-10.213c9.413,9.849,20.782,14.773,34.111,14.773c12.741,0,23.604-4.561,32.588-13.687
	c9.125-8.837,13.687-19.043,13.687-30.634v-4.779c-5.648,6.663-12.457,11.622-20.422,14.881c-7.969,3.259-16.585,4.89-25.853,4.89
	c-16.66,0-30.997-5.357-43.019-16.076c-11.878-11.875-17.816-26.215-17.816-43.02v-77.561h14.34v77.561
	c0,12.893,4.562,23.898,13.687,33.025c9.416,8.979,20.349,13.468,32.809,13.468c12.741,0,23.604-4.561,32.588-13.686
	c9.125-9.125,13.687-20.06,13.687-32.807v-77.561H1404.966z"/>
<path d="M1542.704,628.598h-14.556v-77.78c0-12.743-4.561-23.606-13.687-32.587c-8.982-9.125-19.847-13.689-32.591-13.689
	c-12.747,0-23.681,4.564-32.806,13.689c-8.982,8.981-13.468,19.845-13.468,32.587v212.102h-14.559V550.817
	c0-16.654,5.939-30.922,17.817-42.8c12.021-12.021,26.357-18.032,43.015-18.032c16.803,0,31.141,5.94,43.019,17.814
	c11.875,11.878,17.814,26.219,17.814,43.018V628.598z"/>
<path style="fill:#E94E1B;" d="M1662.412,611.868c-12.023,11.591-26.722,17.381-44.103,17.381c-16.657,0-30.998-5.357-43.019-16.076
	c-11.878-11.875-17.813-26.215-17.813-43.02v-19.336c0-16.654,5.936-30.922,17.813-42.8c12.021-12.021,26.361-18.032,43.019-18.032
	c16.654,0,30.922,5.94,42.8,17.814c12.021,11.733,18.033,26.072,18.033,43.018v16.947h-107.325v2.39
	c0,12.893,4.562,23.898,13.687,33.025c9.413,8.979,20.35,13.468,32.806,13.468c13.178,0,24.478-4.997,33.894-14.988
	L1662.412,611.868z M1664.586,553.207v-2.39c0-12.743-4.564-23.606-13.689-32.587c-8.979-9.125-19.844-13.689-32.588-13.689
	c-12.747,0-23.681,4.564-32.806,13.689c-9.125,8.981-13.687,19.845-13.687,32.587v2.39H1664.586z"/>
<path style="fill:#E94E1B;" d="M1667.265,427.283l76.622,118.103l39.105-52.793h18.901l-48.667,65.395l51.057,70.61h-18.901
	l-41.495-58.009l-41.716,58.009h-18.466l50.62-70.61l-85.961-130.705H1667.265z"/>
<g>
	<path d="M1455.416,652.829c2.041,0,3.738,0.745,5.094,2.231l-1.565,1.599c-0.933-1.087-2.109-1.634-3.528-1.634
		c-1.311,0-2.409,0.468-3.297,1.4c-0.91,0.91-1.365,1.997-1.365,3.262c0,1.82,0.622,3.085,1.864,3.796
		c0.579,0.31,1.216,0.633,1.916,0.964c0.698,0.336,1.435,0.654,2.212,0.968c1.443,0.575,2.809,1.396,4.097,2.462
		c1.265,1.043,1.896,2.864,1.896,5.462c0,2.264-0.81,4.194-2.431,5.791c-1.62,1.422-3.54,2.13-5.759,2.13
		c-2.264,0-4.207-0.708-5.825-2.13l1.598-1.564c1.176,1.176,2.584,1.764,4.228,1.764s3.052-0.588,4.229-1.764
		c1.176-1.177,1.764-2.586,1.764-4.227c0-2.134-0.632-3.597-1.897-4.396c-1.244-0.8-2.619-1.485-4.128-2.064
		c-1.443-0.575-2.818-1.33-4.128-2.263c-1.244-0.933-1.865-2.576-1.865-4.928c0-1.865,0.678-3.474,2.031-4.826
		C1451.907,653.508,1453.528,652.829,1455.416,652.829z"/>
	<path d="M1474.923,681.26c-2.863,0-5.316-0.92-7.358-2.763c-2.042-2.042-3.063-4.481-3.063-7.323v-7.924
		c0-2.864,1.021-5.316,3.063-7.358s4.495-3.063,7.358-3.063s5.316,1.021,7.358,3.063s3.063,4.494,3.063,7.358h0.033v7.924h-0.033
		c-0.044,2.863-1.077,5.304-3.096,7.323C1480.206,680.34,1477.765,681.26,1474.923,681.26z M1474.923,679.329
		c2.265,0,4.194-0.797,5.794-2.396c1.618-1.618,2.431-3.563,2.431-5.825v-7.857c0-2.264-0.813-4.194-2.431-5.794
		c-1.6-1.618-3.529-2.431-5.794-2.431c-2.263,0-4.207,0.813-5.825,2.431c-1.6,1.6-2.397,3.53-2.397,5.794v7.857
		c0,2.263,0.798,4.207,2.397,5.825C1470.716,678.532,1472.661,679.329,1474.923,679.329z"/>
	<path d="M1487.875,653.195h2.197v25.77h14.215v2.197h-16.412V653.195z"/>
	<path d="M1524.496,653.195v17.979h-0.033c-0.044,2.863-1.076,5.304-3.096,7.323c-2.042,1.843-4.484,2.763-7.325,2.763
		c-2.862,0-5.315-0.92-7.356-2.763c-2.044-2.042-3.063-4.481-3.063-7.323v-17.979h2.198v17.912c0,2.263,0.799,4.207,2.396,5.825
		c1.619,1.6,3.562,2.396,5.825,2.396c2.265,0,4.196-0.797,5.794-2.396c1.619-1.618,2.43-3.563,2.43-5.825v-17.912H1524.496z"/>
	<path d="M1544.638,678.466c-2.042,1.861-4.508,2.794-7.392,2.794c-2.885,0-5.337-0.933-7.357-2.794
		c-2.042-2.042-3.063-4.495-3.063-7.358v-7.857c0-2.864,1.021-5.316,3.063-7.358s4.495-3.063,7.357-3.063
		c2.884,0,5.35,1.021,7.392,3.063l-1.6,1.564c-1.597-1.618-3.527-2.431-5.792-2.431s-4.206,0.813-5.827,2.431
		c-1.597,1.6-2.396,3.53-2.396,5.794v7.857c0,2.263,0.8,4.207,2.396,5.825c1.621,1.6,3.563,2.396,5.827,2.396
		s4.195-0.81,5.792-2.428L1544.638,678.466z"/>
	<path d="M1549.265,653.195v27.967h-2.231v-27.967H1549.265z"/>
	<path d="M1562.347,681.26c-2.863,0-5.316-0.92-7.357-2.763c-2.042-2.042-3.063-4.481-3.063-7.323v-7.924
		c0-2.864,1.021-5.316,3.063-7.358c2.041-2.042,4.494-3.063,7.357-3.063c2.864,0,5.316,1.021,7.358,3.063s3.063,4.494,3.063,7.358
		h0.031v7.924h-0.031c-0.045,2.863-1.078,5.304-3.098,7.323C1567.629,680.34,1565.189,681.26,1562.347,681.26z M1562.347,679.329
		c2.264,0,4.194-0.797,5.794-2.396c1.618-1.618,2.431-3.563,2.431-5.825v-7.857c0-2.264-0.813-4.194-2.431-5.794
		c-1.6-1.618-3.53-2.431-5.794-2.431c-2.263,0-4.207,0.813-5.825,2.431c-1.599,1.6-2.397,3.53-2.397,5.794v7.857
		c0,2.263,0.799,4.207,2.397,5.825C1558.14,678.532,1560.084,679.329,1562.347,679.329z"/>
	<path d="M1575.3,653.195h3.629l15.014,25.969v-25.969h2.196v27.967h-3.628l-15.014-25.969v25.969h-2.197V653.195z"/>
	<path d="M1598.937,653.195h16.41v2.231h-14.214v8.889h9.786v2.629h-9.786v12.021h14.214v2.197h-16.41V653.195z"/>
	<path d="M1623.303,652.829c2.042,0,3.742,0.745,5.095,2.231l-1.564,1.599c-0.932-1.087-2.107-1.634-3.53-1.634
		c-1.309,0-2.408,0.468-3.294,1.4c-0.91,0.91-1.365,1.997-1.365,3.262c0,1.82,0.62,3.085,1.865,3.796
		c0.575,0.31,1.214,0.633,1.912,0.964c0.698,0.336,1.438,0.654,2.216,0.968c1.441,0.575,2.807,1.396,4.093,2.462
		c1.268,1.043,1.9,2.864,1.9,5.462c0,2.264-0.813,4.194-2.431,5.791c-1.622,1.422-3.54,2.13-5.76,2.13
		c-2.266,0-4.206-0.708-5.828-2.13l1.6-1.564c1.176,1.176,2.585,1.764,4.229,1.764c1.641,0,3.051-0.588,4.227-1.764
		c1.176-1.177,1.764-2.586,1.764-4.227c0-2.134-0.632-3.597-1.896-4.396c-1.242-0.8-2.62-1.485-4.128-2.064
		c-1.444-0.575-2.819-1.33-4.128-2.263c-1.242-0.933-1.865-2.576-1.865-4.928c0-1.865,0.677-3.474,2.032-4.826
		C1619.798,653.508,1621.419,652.829,1623.303,652.829z"/>
	<path d="M1651.57,653.195v27.967h-2.231v-27.967H1651.57z"/>
	<path d="M1654.532,653.195h3.629l15.017,25.969v-25.969h2.196v27.967h-3.628l-15.018-25.969v25.969h-2.196V653.195z"/>
	<path d="M1678.171,653.195h16.41v2.231h-14.214v8.889h9.786v2.629h-9.786v14.218h-2.196V653.195z"/>
	<path d="M1706.103,681.26c-2.863,0-5.316-0.92-7.358-2.763c-2.042-2.042-3.063-4.481-3.063-7.323v-7.924
		c0-2.864,1.021-5.316,3.063-7.358s4.495-3.063,7.358-3.063c2.86,0,5.313,1.021,7.355,3.063s3.063,4.494,3.063,7.358h0.035v7.924
		h-0.035c-0.044,2.863-1.074,5.304-3.095,7.323C1711.384,680.34,1708.941,681.26,1706.103,681.26z M1706.103,679.329
		c2.264,0,4.194-0.797,5.791-2.396c1.621-1.618,2.43-3.563,2.43-5.825v-7.857c0-2.264-0.809-4.194-2.43-5.794
		c-1.597-1.618-3.527-2.431-5.791-2.431c-2.267,0-4.207,0.813-5.828,2.431c-1.597,1.6-2.396,3.53-2.396,5.794v7.857
		c0,2.263,0.8,4.207,2.396,5.825C1701.896,678.532,1703.836,679.329,1706.103,679.329z"/>
	<path d="M1719.053,653.195h9.32c2.551,0,4.748,0.923,6.591,2.763c1.82,1.82,2.73,4.008,2.73,6.559c0,1.931-0.543,3.676-1.631,5.228
		c-1.065,1.577-2.443,2.709-4.128,3.395l5.794,10.023h-2.563l-5.427-9.423c-0.646,0.066-1.101,0.102-1.366,0.102h-7.124v9.321
		h-2.196V653.195z M1728.374,669.609c1.954,0,3.616-0.689,4.994-2.064c1.397-1.399,2.096-3.075,2.096-5.028
		s-0.698-3.616-2.096-4.994c-1.378-1.397-3.04-2.096-4.994-2.096h-7.124v14.183H1728.374z"/>
	<path d="M1766.227,681.162h-2.231V654.46l-9.719,26.702h-2.134l-9.754-26.702v26.702h-2.197v-27.967h4.128l8.892,24.436
		l8.888-24.436h4.128V681.162z"/>
	<path d="M1778.112,653.195h2.997l10.187,27.967h-2.364l-3.395-9.321h-11.853l-3.396,9.321h-2.263L1778.112,653.195z
		 M1774.484,669.609h10.253l-5.127-14.085L1774.484,669.609z M1778.677,651.432h-1.798l4.03-6.691h2.93L1778.677,651.432z"/>
	<path d="M1810.706,653.195v2.231h-8.224v25.735h-2.197v-25.735h-8.221v-2.231H1810.706z"/>
	<path d="M1814.6,653.195v27.967h-2.229v-27.967H1814.6z"/>
	<path d="M1835.041,678.466c-2.041,1.861-4.504,2.794-7.39,2.794s-5.339-0.933-7.358-2.794c-2.042-2.042-3.063-4.495-3.063-7.358
		v-7.857c0-2.864,1.021-5.316,3.063-7.358s4.495-3.063,7.358-3.063c2.886,0,5.349,1.021,7.39,3.063l-1.596,1.564
		c-1.6-1.618-3.531-2.431-5.794-2.431s-4.207,0.813-5.825,2.431c-1.6,1.6-2.399,3.53-2.399,5.794v7.857
		c0,2.263,0.8,4.207,2.399,5.825c1.618,1.6,3.563,2.396,5.825,2.396s4.194-0.81,5.794-2.428L1835.041,678.466z"/>
	<path d="M1846.66,653.195h2.996l10.188,27.967h-2.364l-3.395-9.321h-11.853l-3.395,9.321h-2.264L1846.66,653.195z
		 M1843.031,669.609h10.254l-5.127-14.085L1843.031,669.609z"/>
	<path d="M1868.166,652.829c2.042,0,3.742,0.745,5.096,2.231l-1.564,1.599c-0.933-1.087-2.108-1.634-3.531-1.634
		c-1.309,0-2.408,0.468-3.293,1.4c-0.91,0.91-1.365,1.997-1.365,3.262c0,1.82,0.619,3.085,1.864,3.796
		c0.575,0.31,1.214,0.633,1.912,0.964c0.699,0.336,1.438,0.654,2.216,0.968c1.441,0.575,2.807,1.396,4.094,2.462
		c1.268,1.043,1.899,2.864,1.899,5.462c0,2.264-0.813,4.194-2.431,5.791c-1.621,1.422-3.54,2.13-5.759,2.13
		c-2.267,0-4.207-0.708-5.829-2.13l1.6-1.564c1.176,1.176,2.586,1.764,4.229,1.764c1.64,0,3.05-0.588,4.226-1.764
		c1.176-1.177,1.764-2.586,1.764-4.227c0-2.134-0.632-3.597-1.896-4.396c-1.242-0.8-2.62-1.485-4.128-2.064
		c-1.444-0.575-2.819-1.33-4.128-2.263c-1.242-0.933-1.865-2.576-1.865-4.928c0-1.865,0.677-3.474,2.033-4.826
		C1864.661,653.508,1866.282,652.829,1868.166,652.829z"/>
</g>
<g>
	<path d="M1594.464,227.088l46.15-62.308h1.536c-28.298-46.228-79.261-77.078-137.431-77.078c-0.229,0-0.455,0.008-0.683,0.009
		L1594.464,227.088z"/>
	<path d="M1605.486,241.96l48.545,67.138c7.547-18.646,11.712-39.021,11.712-60.373c0-24.189-5.343-47.126-14.899-67.713
		L1605.486,241.96z"/>
	<path d="M1643.434,325.296l-48.97-68.464l-105.861,152.116c5.301,0.527,10.678,0.801,16.117,0.801
		c61.212,0,114.445-34.159,141.684-84.452H1643.434z"/>
	<path d="M1344.132,236.877h133.776v-4.417c0-23.552-8.435-43.631-25.302-60.231c-16.598-16.867-36.676-25.302-60.23-25.302
		c-4.514,0-8.9,0.315-13.168,0.934C1359.316,172.583,1346.574,203.3,1344.132,236.877z"/>
	<path d="M1469.026,405.771l114.151-163.811L1482.714,89.205c-28.313,3.87-54.278,15.097-75.912,31.695
		c24.67,2.951,46.239,13.617,64.681,32.05c22.217,21.686,33.329,48.188,33.329,79.51v31.323h-160.41
		c3.169,34.147,16.992,65.202,38.124,89.803c3.226,0.35,6.505,0.547,9.851,0.547c24.354,0,45.24-9.236,62.644-27.703l18.87,18.87
		c-18.788,18.112-41.125,28.53-66.988,31.328C1424.978,390.473,1446.069,400.575,1469.026,405.771z"/>
</g>
</svg>
